<?xml version="1.0" encoding="UTF-8"?>
<svg width="72px" height="72px" viewBox="0 0 72 72" version="1.1" xmlns="http://www.w3.org/2000/svg" xmlns:xlink="http://www.w3.org/1999/xlink">
    <!-- Generator: Sketch 52.5 (67469) - http://www.bohemiancoding.com/sketch -->
    <title>avatar-default</title>
    <desc>Created with Sketch.</desc>
    <g id="avatar-default" stroke="none" stroke-width="1" fill="none" fill-rule="evenodd">
        <rect id="Rectangle" fill="#ECECEC" x="0" y="0" width="72" height="72"></rect>
        <path d="M50.7838323,45.9306533 C50.0047142,44.0733668 48.8834436,42.4067839 47.4612439,40.9765075 C46.0390441,39.5462312 44.3818723,38.4227387 42.5350737,37.6350503 C42.5185845,37.6267588 42.5020952,37.6226131 42.4856059,37.6143216 C45.0538101,35.7487437 46.723349,32.7099246 46.723349,29.281407 C46.723349,23.6017588 42.1475758,19 36.5,19 C30.8524242,19 26.276651,23.6017588 26.276651,29.281407 C26.276651,32.7099246 27.9461899,35.7487437 30.5143941,37.6184673 C30.4979048,37.6267588 30.4814155,37.6309045 30.4649263,37.639196 C28.6181277,38.4227387 26.9609559,39.5462312 25.5387561,40.9806533 C24.1165564,42.4109296 22.9994081,44.0775126 22.2161677,45.934799 C21.4494165,47.7506281 21.041307,49.678392 21.0000838,51.6600503 C20.9959615,51.846608 21.144365,52 21.3298693,52 L23.8032602,52 C23.9846422,52 24.1289233,51.8548995 24.1330456,51.6766332 C24.215492,48.4761307 25.4934106,45.4787688 27.7524409,43.2069095 C30.0897953,40.8562814 33.1939009,39.5628141 36.5,39.5628141 C39.8060991,39.5628141 42.9102047,40.8562814 45.2475591,43.2069095 C47.5065894,45.4787688 48.784508,48.4761307 48.8669544,51.6766332 C48.8710767,51.8590452 49.0153578,52 49.1967398,52 L51.6701307,52 C51.855635,52 52.0040385,51.846608 51.9999162,51.6600503 C51.958693,49.678392 51.5505835,47.7506281 50.7838323,45.9306533 Z M36.5,36.4120603 C34.607856,36.4120603 32.8270146,35.6699749 31.4872612,34.3226131 C30.1475078,32.9752513 29.4096128,31.1842965 29.4096128,29.281407 C29.4096128,27.3785176 30.1475078,25.5875628 31.4872612,24.240201 C32.8270146,22.8928392 34.607856,22.1507538 36.5,22.1507538 C38.392144,22.1507538 40.1729854,22.8928392 41.5127388,24.240201 C42.8524922,25.5875628 43.5903872,27.3785176 43.5903872,29.281407 C43.5903872,31.1842965 42.8524922,32.9752513 41.5127388,34.3226131 C40.1729854,35.6699749 38.392144,36.4120603 36.5,36.4120603 Z" id="user" fill="#CDCDCD"></path>
    </g>
</svg>