<?xml version="1.0" encoding="UTF-8"?>
<svg version="1.1" xmlns="http://www.w3.org/2000/svg" width="600" height="400">
<path d="M0 0 C198 0 396 0 600 0 C600 132 600 264 600 400 C402 400 204 400 0 400 C0 268 0 136 0 0 Z " fill="#ECECEC" transform="translate(0,0)"/>
<path d="M0 0 C1.30795532 -0.01279495 1.30795532 -0.01279495 2.64233398 -0.02584839 C4.07308762 -0.02448883 4.07308762 -0.02448883 5.53274536 -0.02310181 C6.53952332 -0.02981903 7.54630127 -0.03653625 8.58358765 -0.04345703 C11.91971744 -0.06249217 15.25564664 -0.06636404 18.59182739 -0.06851196 C20.9072681 -0.07493611 23.22270799 -0.08166418 25.53814697 -0.08868408 C30.39541506 -0.1006707 35.25261196 -0.10436348 40.1098938 -0.10317993 C46.33667425 -0.10297668 52.56299861 -0.13027942 58.78967094 -0.16472435 C63.57318217 -0.18695238 68.35658294 -0.19101872 73.14014053 -0.18996048 C75.43587949 -0.19232259 77.7316212 -0.20118027 80.02730942 -0.21662521 C83.23778036 -0.2362015 86.44725873 -0.23047947 89.65774536 -0.21841431 C90.60753265 -0.22965332 91.55731995 -0.24089233 92.53588867 -0.25247192 C96.65068683 -0.21313902 99.10380959 -0.08758059 102.7288208 1.98529053 C107.01427691 6.88552896 107.02225203 11.61881315 107.01516724 17.90975952 C107.02188446 18.76891968 107.02860168 19.62807983 107.03552246 20.51327515 C107.05448402 23.34674905 107.0584255 26.17998593 107.06057739 29.01351929 C107.0670058 30.98740231 107.07373419 32.96128438 107.08074951 34.93516541 C107.09271709 39.07011118 107.09643079 43.20497343 107.09524536 47.3399353 C107.09504202 52.63391818 107.12236228 57.92736515 107.15678978 63.22122097 C107.17904301 67.29705763 107.18308341 71.37276489 107.18202591 75.44865608 C107.18438354 77.40026766 107.1932162 79.35188272 107.20869064 81.30343437 C107.22832187 84.03456925 107.22252434 86.7645428 107.21047974 89.49569702 C107.22171875 90.29848587 107.23295776 91.10127472 107.24453735 91.9283905 C107.1860926 97.1527064 106.18888296 100.12927606 102.72463989 104.26742554 C99.62542575 106.3335683 98.95888768 106.51932574 95.44927979 106.53485107 C94.57730957 106.54338104 93.70533936 106.55191101 92.8069458 106.56069946 C91.37619217 106.5593399 91.37619217 106.5593399 89.91653442 106.55795288 C88.90975647 106.5646701 87.90297852 106.57138733 86.86569214 106.57830811 C83.52956235 106.59734324 80.19363315 106.60121512 76.85745239 106.60336304 C74.54201168 106.60978719 72.22657179 106.61651525 69.91113281 106.62353516 C65.05386472 106.63552178 60.19666783 106.63921456 55.33938599 106.63803101 C49.11260553 106.63782776 42.88628117 106.66513049 36.65960884 106.69957542 C31.87609761 106.72180345 27.09269684 106.7258698 22.30913925 106.72481155 C20.0134003 106.72717367 17.71765858 106.73603135 15.42197037 106.75147629 C12.21149942 106.77105258 9.00202105 106.76533055 5.79153442 106.75326538 C4.84174713 106.76450439 3.89195984 106.77574341 2.91339111 106.787323 C-1.20140704 106.74799009 -3.6545298 106.62243167 -7.27954102 104.54956055 C-11.56499712 99.64932212 -11.57297225 94.91603792 -11.56588745 88.62509155 C-11.57260468 87.7659314 -11.5793219 86.90677124 -11.58624268 86.02157593 C-11.60520424 83.18810202 -11.60914572 80.35486515 -11.61129761 77.52133179 C-11.61772601 75.54744876 -11.62445441 73.57356669 -11.63146973 71.59968567 C-11.6434373 67.46473989 -11.647151 63.32987764 -11.64596558 59.19491577 C-11.64576224 53.9009329 -11.67308249 48.60748592 -11.70750999 43.3136301 C-11.72976323 39.23779345 -11.73380362 35.16208618 -11.73274612 31.08619499 C-11.73510376 29.13458341 -11.74393641 27.18296836 -11.75941086 25.2314167 C-11.77904208 22.50028182 -11.77324456 19.77030827 -11.76119995 17.03915405 C-11.77243896 16.2363652 -11.78367798 15.43357635 -11.79525757 14.60646057 C-11.73681281 9.38214468 -10.73960318 6.40557502 -7.27536011 2.26742554 C-4.17614596 0.20128277 -3.50960789 0.01552533 0 0 Z " fill="#FEFEFE" transform="translate(252.27536010742188,146.73257446289063)"/>
<path d="M0 0 C31.68 0 63.36 0 96 0 C96 12.54 96 25.08 96 38 C87 33 87 33 83.25 30.1875 C79.38797873 27.57663894 79.38797873 27.57663894 75 28 C72.74141741 29.74943946 70.8206679 31.43653413 68.8125 33.4375 C67.65808636 34.54612953 66.50313327 35.65419759 65.34765625 36.76171875 C64.78062988 37.31263184 64.21360352 37.86354492 63.62939453 38.43115234 C61.38473045 40.59240668 59.07335293 42.67388963 56.75 44.75 C55.96367187 45.45511719 55.17734375 46.16023438 54.3671875 46.88671875 C50.58383992 50.26426172 46.7951381 53.63571091 43 57 C37.79035814 55.30225824 34.02652545 52.00681701 29.90429688 48.54492188 C26.32903018 45.6635531 23.66702681 43.79311746 19 44 C16.53849582 45.65793061 14.62272644 47.17317883 12.5 49.1875 C11.4089519 50.18395605 10.3152201 51.17748204 9.21875 52.16796875 C8.5062207 52.83735474 8.5062207 52.83735474 7.77929688 53.52026367 C5.34059548 55.54838787 2.63912821 57.24058119 0 59 C0 39.53 0 20.06 0 0 Z " fill="#ECECEC" transform="translate(252,157)"/>
<path d="M0 0 C6 1 6 1 20 11 C20 22.55 20 34.1 20 46 C-11.68 46 -43.36 46 -76 46 C-76 32 -76 32 -73.21875 28.4375 C-71.4140625 27.15234375 -71.4140625 27.15234375 -69.5 26 C-68.89929688 25.58878906 -68.29859375 25.17757812 -67.6796875 24.75390625 C-66.45609714 23.91822007 -65.22016046 23.10032988 -63.97265625 22.30078125 C-60.52964087 20.03043646 -57.2747156 17.50444741 -54 15 C-53.51120361 15.38857178 -53.02240723 15.77714355 -52.51879883 16.17749023 C-50.29062827 17.94023831 -48.05179487 19.68890916 -45.8125 21.4375 C-45.04357422 22.04916016 -44.27464844 22.66082031 -43.48242188 23.29101562 C-42.73154297 23.87431641 -41.98066406 24.45761719 -41.20703125 25.05859375 C-40.5210083 25.59798584 -39.83498535 26.13737793 -39.12817383 26.69311523 C-36.71371389 28.1758047 -34.80815065 28.70046004 -32 29 C-30.08151115 27.99410501 -30.08151115 27.99410501 -28.4375 26.25 C-27.75300781 25.60289062 -27.06851563 24.95578125 -26.36328125 24.2890625 C-25.58339844 23.53367188 -24.80351562 22.77828125 -24 22 C-22.5558175 20.67334408 -21.11141744 19.34690972 -19.66186523 18.02612305 C-18.11920664 16.61971833 -16.58261522 15.20692148 -15.046875 13.79296875 C-11.37944089 10.42336767 -7.67234183 7.09839002 -3.9609375 3.77734375 C-2.60913231 2.55210199 -1.29007648 1.29007648 0 0 Z " fill="#ECECEC" transform="translate(328,197)"/>
<path d="M0 0 C2.61399034 1.80504183 3.34084349 3.1098564 5 6 C5.619038 9.46661281 5.80972674 11.6722863 3.9375 14.7421875 C2.16814744 16.94334633 0.54477916 18.72761042 -2 20 C-9.08958838 20.5811138 -9.08958838 20.5811138 -12.9375 18.125 C-15.83907658 15.13549686 -15.97949802 14.42370761 -16.1875 10.125 C-16.12938074 6.91100503 -16.03332938 4.61428063 -14 2 C-9.71219503 -1.76807103 -5.23433449 -1.69429634 0 0 Z " fill="#FEFEFE" transform="translate(279,169)"/>
</svg>
