<svg xmlns="http://www.w3.org/2000/svg" width="1em" height="1em" viewBox="0 0 20 20">
    <g fill="none" fill-rule="evenodd">
        <g>
            <g>
                <g>
                    <path fill="#CDCDCD" fill-rule="nonzero" d="M10 16.035L6.137 18.17c-.483.268-1.092.092-1.359-.391-.109-.196-.148-.423-.112-.645l.75-4.6-3.224-3.305c-.385-.395-.377-1.028.018-1.414.15-.146.34-.241.547-.273L4 7.352l3.167-.484 1.928-4.106c.234-.5.83-.715 1.33-.48.211.099.381.269.48.48l1.928 4.106 4.41.674c.546.084.92.594.837 1.14-.031.206-.127.398-.272.547l-3.225 3.305.75 4.6c.09.545-.28 1.06-.825 1.148-.222.036-.449-.003-.645-.112L10 16.035z" transform="translate(-166 -1087) translate(70 1087) translate(96)"/>
                    <path fill="#FFBE1E" d="M10 2.187v13.848L6.137 18.17c-.483.268-1.092.092-1.359-.391-.109-.196-.148-.423-.112-.645l.75-4.6-3.224-3.305c-.385-.395-.377-1.028.018-1.414.15-.146.34-.241.547-.273L4 7.352l3.167-.484 1.928-4.106c.17-.362.53-.575.905-.575z" transform="translate(-166 -1087) translate(70 1087) translate(96)"/>
                </g>
            </g>
        </g>
    </g>
</svg>
