<svg xmlns="http://www.w3.org/2000/svg" width="1em" height="1em" viewBox="0 0 16 16">
    <g fill="none" fill-rule="evenodd">
        <g fill="#FFBE1E">
            <g>
                <g>
                    <path d="M8 12.828l-2.73 1.51c-.483.266-1.092.091-1.359-.392-.108-.197-.148-.424-.112-.645l.534-3.274-2.307-2.365c-.386-.396-.378-1.029.017-1.414.15-.146.341-.242.547-.273l.61-.093 2.534-.387 1.36-2.9c.235-.5.83-.715 1.33-.48.212.1.382.269.481.48l1.361 2.9 3.144.48c.545.083.92.594.837 1.14-.032.206-.127.397-.273.547l-2.307 2.365.534 3.274c.089.545-.281 1.059-.826 1.148-.222.036-.449-.003-.645-.112L8 12.828z" transform="translate(-217 -289) translate(163 289) translate(54)"/>
                </g>
            </g>
        </g>
    </g>
</svg>
