<svg xmlns="http://www.w3.org/2000/svg" width="32" height="32" viewBox="0 0 32 32">
    <path fill="#A92528" fill-rule="evenodd" d="M19.37 1.333c.726 0 1.42.296 1.923.82l2.984 3.104 2.981 3.111c.476.497.742 1.158.742 1.845V28c0 1.473-1.194 2.667-2.667 2.667H6.667C5.194 30.667 4 29.473 4 28V4c0-1.473 1.194-2.667 2.667-2.667H19.37zM17.334 4L6.667 4v24h18.666V12H20c-1.473 0-2.667-1.194-2.667-2.667V4zm4.334 17.334c.552 0 1 .448 1 1V23c0 .552-.448 1-1 1H10.333c-.552 0-1-.448-1-1v-.667c0-.552.448-1 1-1h11.334zm0-5.333c.552 0 1 .448 1 1v.667c0 .552-.448 1-1 1H10.333c-.552 0-1-.448-1-1V17c0-.552.448-1 1-1h11.334zM19.999 4.654L20 9.334l4.489-.002-2.135-2.227-2.355-2.45z"/>
</svg>
