<svg xmlns="http://www.w3.org/2000/svg" width="1em" height="1em" viewBox="0 0 24 24">
    <path fill="currentColor" fill-rule="evenodd" d="M15 1c1.105 0 2 .895 2 2v2h4c.552 0 1 .448 1 1s-.448 1-1 1h-.113l-.903 15.06c-.032.528-.47.94-.999.94H5.057c-.528 0-.965-.41-.998-.938L3.116 7H3c-.552 0-1-.448-1-1s.448-1 1-1h4V3c0-1.105.895-2 2-2h6zm3.884 6H5.12l.876 14h12.048l.84-14zM10 10c.552 0 1 .448 1 1v6c0 .552-.448 1-1 1s-1-.448-1-1v-6c0-.552.448-1 1-1zm4 0c.552 0 1 .448 1 1v6c0 .552-.448 1-1 1s-1-.448-1-1v-6c0-.552.448-1 1-1zm1-7H9v2h6V3z"/>
</svg>
