<svg xmlns="http://www.w3.org/2000/svg" width="1em" height="1em" viewBox="0 0 32 33">
  <path fill="currentColor" fill-rule="evenodd" d="M2.982 14.721l-.046.01h19.629l-6.17-6.63a1.788 1.788 0 0 1-.468-1.223c0-.46.165-.896.467-1.22l.96-1.03a1.54 1.54 0 0 1 1.134-.503c.43 0 .832.178 1.134.501l10.577 11.341c.303.325.469.758.468 1.219a1.77 1.77 0 0 1-.468 1.22L19.622 29.75a1.54 1.54 0 0 1-1.134.501 1.54 1.54 0 0 1-1.133-.501l-.96-1.03a1.768 1.768 0 0 1-.468-1.216c0-.46.165-.869.467-1.192l6.24-6.668H2.96c-.884 0-1.627-.817-1.627-1.765v-1.457c0-.947.765-1.7 1.65-1.7z" />
</svg>
