<svg xmlns="http://www.w3.org/2000/svg" width="1em" height="1em" viewBox="0 0 24 24">
    <path fill="currentColor" fill-rule="evenodd" d="M12 11c1.612 0 3-1.527 3-3.5 0-2.769-.527-3.5-3-3.5s-3 .731-3 3.5c0 1.973 1.388 3.5 3 3.5zm0 2c-2.761 0-5-2.462-5-5.5S7.735 2 12 2s5 2.462 5 5.5-2.239 5.5-5 5.5zm3.032 3.07c-.093.043-.19.086-.293.127-.768.31-1.683.489-2.739.489-1.056 0-1.97-.179-2.738-.489a5.655 5.655 0 0 1-.293-.128c-3.5.455-3.852.746-3.942 3.029.08.032.169.066.265.1C6.67 19.688 8.855 20 12 20s5.331-.312 6.708-.802c.097-.034.185-.068.266-.1-.087-2.296-.461-2.578-3.942-3.029zm5.958 3.533c.006.245.01.426.01.563 0 0-1.325 1.834-9 1.834-7.674 0-9-1.834-9-1.834 0-.214.005-.383.014-.687.101-3.723.873-4.797 6.377-5.479 0 0 .783.686 2.61.686 1.825 0 2.608-.686 2.608-.686 5.565.69 6.293 1.78 6.38 5.603z"/>
</svg>
